{
    "asset": {
        "generator": "FBX2glTF",
        "version": "2.0"
    },
    "scene": 0,
    "buffers": [
        {
            "byteLength": 38780,
            "uri": "chickenNEW.bin"
        }
    ],
    "bufferViews": [
        {
            "buffer": 0,
            "byteLength": 88,
            "byteOffset": 0
        },
        {
            "buffer": 0,
            "byteLength": 264,
            "byteOffset": 88
        },
        {
            "buffer": 0,
            "byteLength": 352,
            "byteOffset": 352
        },
        {
            "buffer": 0,
            "byteLength": 352,
            "byteOffset": 704
        },
        {
            "buffer": 0,
            "byteLength": 264,
            "byteOffset": 1056
        },
        {
            "buffer": 0,
            "byteLength": 352,
            "byteOffset": 1320
        },
        {
            "buffer": 0,
            "byteLength": 264,
            "byteOffset": 1672
        },
        {
            "buffer": 0,
            "byteLength": 1932,
            "byteOffset": 1936,
            "target": 34963
        },
        {
            "buffer": 0,
            "byteLength": 2772,
            "byteOffset": 3868,
            "target": 34962
        },
        {
            "buffer": 0,
            "byteLength": 2772,
            "byteOffset": 6640,
            "target": 34962
        },
        {
            "buffer": 0,
            "byteLength": 1848,
            "byteOffset": 9412,
            "target": 34962
        },
        {
            "buffer": 0,
            "byteLength": 3120,
            "byteOffset": 11260,
            "target": 34963
        },
        {
            "buffer": 0,
            "byteLength": 3864,
            "byteOffset": 14380,
            "target": 34962
        },
        {
            "buffer": 0,
            "byteLength": 3864,
            "byteOffset": 18244,
            "target": 34962
        },
        {
            "buffer": 0,
            "byteLength": 2576,
            "byteOffset": 22108,
            "target": 34962
        },
        {
            "buffer": 0,
            "byteLength": 3120,
            "byteOffset": 24684,
            "target": 34963
        },
        {
            "buffer": 0,
            "byteLength": 3864,
            "byteOffset": 27804,
            "target": 34962
        },
        {
            "buffer": 0,
            "byteLength": 3864,
            "byteOffset": 31668,
            "target": 34962
        },
        {
            "buffer": 0,
            "byteLength": 2576,
            "byteOffset": 35532,
            "target": 34962
        },
        {
            "buffer": 0,
            "byteLength": 48,
            "byteOffset": 38108,
            "target": 34963
        },
        {
            "buffer": 0,
            "byteLength": 108,
            "byteOffset": 38156,
            "target": 34962
        },
        {
            "buffer": 0,
            "byteLength": 108,
            "byteOffset": 38264,
            "target": 34962
        },
        {
            "buffer": 0,
            "byteLength": 72,
            "byteOffset": 38372,
            "target": 34962
        },
        {
            "buffer": 0,
            "byteLength": 48,
            "byteOffset": 38444,
            "target": 34963
        },
        {
            "buffer": 0,
            "byteLength": 108,
            "byteOffset": 38492,
            "target": 34962
        },
        {
            "buffer": 0,
            "byteLength": 108,
            "byteOffset": 38600,
            "target": 34962
        },
        {
            "buffer": 0,
            "byteLength": 72,
            "byteOffset": 38708,
            "target": 34962
        }
    ],
    "scenes": [
        {
            "name": "Root Scene",
            "nodes": [
                0
            ]
        }
    ],
    "accessors": [
        {
            "componentType": 5126,
            "type": "SCALAR",
            "count": 22,
            "bufferView": 0,
            "byteOffset": 0,
            "min": [
                0.0
            ],
            "max": [
                0.875
            ]
        },
        {
            "componentType": 5126,
            "type": "VEC3",
            "count": 22,
            "bufferView": 1,
            "byteOffset": 0
        },
        {
            "componentType": 5126,
            "type": "VEC4",
            "count": 22,
            "bufferView": 2,
            "byteOffset": 0
        },
        {
            "componentType": 5126,
            "type": "VEC4",
            "count": 22,
            "bufferView": 3,
            "byteOffset": 0
        },
        {
            "componentType": 5126,
            "type": "VEC3",
            "count": 22,
            "bufferView": 4,
            "byteOffset": 0
        },
        {
            "componentType": 5126,
            "type": "VEC4",
            "count": 22,
            "bufferView": 5,
            "byteOffset": 0
        },
        {
            "componentType": 5126,
            "type": "VEC3",
            "count": 22,
            "bufferView": 6,
            "byteOffset": 0
        },
        {
            "componentType": 5123,
            "type": "SCALAR",
            "count": 966,
            "bufferView": 7,
            "byteOffset": 0
        },
        {
            "componentType": 5126,
            "type": "VEC3",
            "count": 231,
            "bufferView": 8,
            "byteOffset": 0,
            "min": [
                -1.15044951438904,
                -3.95702433586121,
                -4.5520658493042
            ],
            "max": [
                1.15044951438904,
                3.46836733818054,
                3.619464635849
            ]
        },
        {
            "componentType": 5126,
            "type": "VEC3",
            "count": 231,
            "bufferView": 9,
            "byteOffset": 0
        },
        {
            "componentType": 5126,
            "type": "VEC2",
            "count": 231,
            "bufferView": 10,
            "byteOffset": 0
        },
        {
            "componentType": 5123,
            "type": "SCALAR",
            "count": 1560,
            "bufferView": 11,
            "byteOffset": 0
        },
        {
            "componentType": 5126,
            "type": "VEC3",
            "count": 322,
            "bufferView": 12,
            "byteOffset": 0,
            "min": [
                -0.105812013149261,
                -0.105812013149261,
                -0.105812013149261
            ],
            "max": [
                0.105812013149261,
                0.105812013149261,
                0.105812013149261
            ]
        },
        {
            "componentType": 5126,
            "type": "VEC3",
            "count": 322,
            "bufferView": 13,
            "byteOffset": 0
        },
        {
            "componentType": 5126,
            "type": "VEC2",
            "count": 322,
            "bufferView": 14,
            "byteOffset": 0
        },
        {
            "componentType": 5123,
            "type": "SCALAR",
            "count": 1560,
            "bufferView": 15,
            "byteOffset": 0
        },
        {
            "componentType": 5126,
            "type": "VEC3",
            "count": 322,
            "bufferView": 16,
            "byteOffset": 0,
            "min": [
                -0.105812013149261,
                -0.105812013149261,
                -0.105812013149261
            ],
            "max": [
                0.105812013149261,
                0.105812013149261,
                0.105812013149261
            ]
        },
        {
            "componentType": 5126,
            "type": "VEC3",
            "count": 322,
            "bufferView": 17,
            "byteOffset": 0
        },
        {
            "componentType": 5126,
            "type": "VEC2",
            "count": 322,
            "bufferView": 18,
            "byteOffset": 0
        },
        {
            "componentType": 5123,
            "type": "SCALAR",
            "count": 24,
            "bufferView": 19,
            "byteOffset": 0
        },
        {
            "componentType": 5126,
            "type": "VEC3",
            "count": 9,
            "bufferView": 20,
            "byteOffset": 0,
            "min": [
                -0.0748203843832016,
                -2.349498665605e-17,
                -0.10220655053854
            ],
            "max": [
                -0.023717112839222,
                0.0529060065746307,
                -0.0647963583469391
            ]
        },
        {
            "componentType": 5126,
            "type": "VEC3",
            "count": 9,
            "bufferView": 21,
            "byteOffset": 0
        },
        {
            "componentType": 5126,
            "type": "VEC2",
            "count": 9,
            "bufferView": 22,
            "byteOffset": 0
        },
        {
            "componentType": 5123,
            "type": "SCALAR",
            "count": 24,
            "bufferView": 23,
            "byteOffset": 0
        },
        {
            "componentType": 5126,
            "type": "VEC3",
            "count": 9,
            "bufferView": 24,
            "byteOffset": 0,
            "min": [
                -0.0748203843832016,
                -2.349498665605e-17,
                -0.10220655053854
            ],
            "max": [
                -0.023717112839222,
                0.0529060065746307,
                -0.0647963583469391
            ]
        },
        {
            "componentType": 5126,
            "type": "VEC3",
            "count": 9,
            "bufferView": 25,
            "byteOffset": 0
        },
        {
            "componentType": 5126,
            "type": "VEC2",
            "count": 9,
            "bufferView": 26,
            "byteOffset": 0
        }
    ],
    "images": [
        {
            "name": "chicken color.jpg",
            "uri": "chicken color.jpg"
        }
    ],
    "samplers": [
        {}
    ],
    "textures": [
        {
            "name": "chicken color",
            "sampler": 0,
            "source": 0
        }
    ],
    "materials": [
        {
            "name": "chicken",
            "alphaMode": "OPAQUE",
            "extras": {
                "fromFBX": {
                    "shadingModel": "Lambert",
                    "isTruePBR": false
                }
            },
            "pbrMetallicRoughness": {
                "baseColorTexture": {
                    "index": 0,
                    "texCoord": 0
                },
                "baseColorFactor": [
                    1.0,
                    1.0,
                    1.0,
                    1.0
                ],
                "metallicFactor": 0.200000002980232,
                "roughnessFactor": 0.800000011920929
            }
        },
        {
            "name": "Mat",
            "alphaMode": "OPAQUE",
            "extras": {
                "fromFBX": {
                    "shadingModel": "Lambert",
                    "isTruePBR": false
                }
            },
            "pbrMetallicRoughness": {
                "baseColorFactor": [
                    1.0,
                    1.0,
                    1.0,
                    1.0
                ],
                "metallicFactor": 0.200000002980232,
                "roughnessFactor": 0.800000011920929
            }
        },
        {
            "name": "Mat.1",
            "alphaMode": "OPAQUE",
            "extras": {
                "fromFBX": {
                    "shadingModel": "Lambert",
                    "isTruePBR": false
                }
            },
            "pbrMetallicRoughness": {
                "baseColorFactor": [
                    0.0,
                    0.0,
                    0.0,
                    1.0
                ],
                "metallicFactor": 0.200000002980232,
                "roughnessFactor": 0.800000011920929
            }
        }
    ],
    "meshes": [
        {
            "name": "chicken",
            "primitives": [
                {
                    "material": 0,
                    "mode": 4,
                    "attributes": {
                        "NORMAL": 9,
                        "POSITION": 8,
                        "TEXCOORD_0": 10
                    },
                    "indices": 7
                }
            ]
        },
        {
            "name": "Sphere_1",
            "primitives": [
                {
                    "material": 1,
                    "mode": 4,
                    "attributes": {
                        "NORMAL": 13,
                        "POSITION": 12,
                        "TEXCOORD_0": 14
                    },
                    "indices": 11
                },
                {
                    "material": 2,
                    "mode": 4,
                    "attributes": {
                        "NORMAL": 21,
                        "POSITION": 20,
                        "TEXCOORD_0": 22
                    },
                    "indices": 19
                }
            ]
        },
        {
            "name": "Sphere",
            "primitives": [
                {
                    "material": 1,
                    "mode": 4,
                    "attributes": {
                        "NORMAL": 17,
                        "POSITION": 16,
                        "TEXCOORD_0": 18
                    },
                    "indices": 15
                },
                {
                    "material": 2,
                    "mode": 4,
                    "attributes": {
                        "NORMAL": 25,
                        "POSITION": 24,
                        "TEXCOORD_0": 26
                    },
                    "indices": 23
                }
            ]
        }
    ],
    "animations": [
        {
            "name": "CINEMA_4D_Main",
            "channels": [
                {
                    "sampler": 0,
                    "target": {
                        "node": 1,
                        "path": "translation"
                    }
                },
                {
                    "sampler": 1,
                    "target": {
                        "node": 1,
                        "path": "rotation"
                    }
                },
                {
                    "sampler": 2,
                    "target": {
                        "node": 2,
                        "path": "rotation"
                    }
                },
                {
                    "sampler": 3,
                    "target": {
                        "node": 2,
                        "path": "scale"
                    }
                },
                {
                    "sampler": 4,
                    "target": {
                        "node": 3,
                        "path": "rotation"
                    }
                },
                {
                    "sampler": 5,
                    "target": {
                        "node": 3,
                        "path": "scale"
                    }
                }
            ],
            "samplers": [
                {
                    "input": 0,
                    "interpolation": "LINEAR",
                    "output": 1
                },
                {
                    "input": 0,
                    "interpolation": "LINEAR",
                    "output": 2
                },
                {
                    "input": 0,
                    "interpolation": "LINEAR",
                    "output": 3
                },
                {
                    "input": 0,
                    "interpolation": "LINEAR",
                    "output": 4
                },
                {
                    "input": 0,
                    "interpolation": "LINEAR",
                    "output": 5
                },
                {
                    "input": 0,
                    "interpolation": "LINEAR",
                    "output": 6
                }
            ]
        }
    ],
    "nodes": [
        {
            "name": "RootNode",
            "translation": [
                0.0,
                0.0,
                0.0
            ],
            "rotation": [
                0.0,
                0.0,
                0.0,
                1.0
            ],
            "scale": [
                1.0,
                1.0,
                1.0
            ],
            "children": [
                1
            ]
        },
        {
            "name": "chicken",
            "translation": [
                -4.44735240936279,
                -1.03816628456116,
                -0.229996249079704
            ],
            "rotation": [
                0.70710676908493,
                0.0,
                0.0,
                0.70710676908493
            ],
            "scale": [
                1.0,
                1.0,
                1.0
            ],
            "children": [
                2,
                3
            ],
            "mesh": 0
        },
        {
            "name": "Sphere_1",
            "translation": [
                -0.447611749172211,
                2.55295777320862,
                -3.7725818157196
            ],
            "rotation": [
                0.421116977930069,
                -0.568032145500183,
                0.568032145500183,
                -0.421116977930069
            ],
            "scale": [
                1.0,
                1.0,
                1.0
            ],
            "mesh": 1
        },
        {
            "name": "Sphere",
            "translation": [
                0.467322528362274,
                2.56401062011719,
                -3.7725818157196
            ],
            "rotation": [
                -5.3207788397458e-08,
                0.70710676908493,
                -0.70710676908493,
                -5.3207788397458e-08
            ],
            "scale": [
                1.0,
                1.0,
                1.0
            ],
            "mesh": 2
        }
    ]
}