{
    "asset": {
        "generator": "FBX2glTF",
        "version": "2.0"
    },
    "scene": 0,
    "buffers": [
        {
            "byteLength": 194260,
            "uri": "crocodilehead _new.bin"
        }
    ],
    "bufferViews": [
        {
            "buffer": 0,
            "byteLength": 288,
            "byteOffset": 0
        },
        {
            "buffer": 0,
            "byteLength": 1152,
            "byteOffset": 288
        },
        {
            "buffer": 0,
            "byteLength": 1152,
            "byteOffset": 1440
        },
        {
            "buffer": 0,
            "byteLength": 3348,
            "byteOffset": 2592,
            "target": 34963
        },
        {
            "buffer": 0,
            "byteLength": 4032,
            "byteOffset": 5940,
            "target": 34962
        },
        {
            "buffer": 0,
            "byteLength": 4032,
            "byteOffset": 9972,
            "target": 34962
        },
        {
            "buffer": 0,
            "byteLength": 2688,
            "byteOffset": 14004,
            "target": 34962
        },
        {
            "buffer": 0,
            "byteLength": 2688,
            "byteOffset": 16692,
            "target": 34962
        },
        {
            "buffer": 0,
            "byteLength": 12144,
            "byteOffset": 19380,
            "target": 34963
        },
        {
            "buffer": 0,
            "byteLength": 14484,
            "byteOffset": 31524,
            "target": 34962
        },
        {
            "buffer": 0,
            "byteLength": 14484,
            "byteOffset": 46008,
            "target": 34962
        },
        {
            "buffer": 0,
            "byteLength": 9656,
            "byteOffset": 60492,
            "target": 34962
        },
        {
            "buffer": 0,
            "byteLength": 9656,
            "byteOffset": 70148,
            "target": 34962
        },
        {
            "buffer": 0,
            "byteLength": 6150,
            "byteOffset": 79804,
            "target": 34963
        },
        {
            "buffer": 0,
            "byteLength": 7068,
            "byteOffset": 85956,
            "target": 34962
        },
        {
            "buffer": 0,
            "byteLength": 7068,
            "byteOffset": 93024,
            "target": 34962
        },
        {
            "buffer": 0,
            "byteLength": 4712,
            "byteOffset": 100092,
            "target": 34962
        },
        {
            "buffer": 0,
            "byteLength": 4712,
            "byteOffset": 104804,
            "target": 34962
        },
        {
            "buffer": 0,
            "byteLength": 16704,
            "byteOffset": 109516,
            "target": 34963
        },
        {
            "buffer": 0,
            "byteLength": 20412,
            "byteOffset": 126220,
            "target": 34962
        },
        {
            "buffer": 0,
            "byteLength": 20412,
            "byteOffset": 146632,
            "target": 34962
        },
        {
            "buffer": 0,
            "byteLength": 13608,
            "byteOffset": 167044,
            "target": 34962
        },
        {
            "buffer": 0,
            "byteLength": 13608,
            "byteOffset": 180652,
            "target": 34962
        }
    ],
    "scenes": [
        {
            "name": "Root Scene",
            "nodes": [
                0
            ]
        }
    ],
    "accessors": [
        {
            "componentType": 5126,
            "type": "SCALAR",
            "count": 72,
            "bufferView": 0,
            "byteOffset": 0,
            "min": [
                0.0
            ],
            "max": [
                2.95833325386047
            ]
        },
        {
            "componentType": 5126,
            "type": "VEC4",
            "count": 72,
            "bufferView": 1,
            "byteOffset": 0
        },
        {
            "componentType": 5126,
            "type": "VEC4",
            "count": 72,
            "bufferView": 2,
            "byteOffset": 0
        },
        {
            "componentType": 5123,
            "type": "SCALAR",
            "count": 1674,
            "bufferView": 3,
            "byteOffset": 0
        },
        {
            "componentType": 5126,
            "type": "VEC3",
            "count": 336,
            "bufferView": 4,
            "byteOffset": 0,
            "min": [
                -0.00629367586225271,
                -0.0103319082409143,
                -0.00495243212208152
            ],
            "max": [
                0.0125767337158322,
                0.00254174158908427,
                0.0196400713175535
            ]
        },
        {
            "componentType": 5126,
            "type": "VEC3",
            "count": 336,
            "bufferView": 5,
            "byteOffset": 0
        },
        {
            "componentType": 5126,
            "type": "VEC2",
            "count": 336,
            "bufferView": 6,
            "byteOffset": 0
        },
        {
            "componentType": 5126,
            "type": "VEC2",
            "count": 336,
            "bufferView": 7,
            "byteOffset": 0
        },
        {
            "componentType": 5123,
            "type": "SCALAR",
            "count": 6072,
            "bufferView": 8,
            "byteOffset": 0
        },
        {
            "componentType": 5126,
            "type": "VEC3",
            "count": 1207,
            "bufferView": 9,
            "byteOffset": 0,
            "min": [
                -0.00665602600201964,
                0.0117289107292891,
                0.121476970613003
            ],
            "max": [
                0.00870014447718859,
                0.0243363622575998,
                0.138515517115593
            ]
        },
        {
            "componentType": 5126,
            "type": "VEC3",
            "count": 1207,
            "bufferView": 10,
            "byteOffset": 0
        },
        {
            "componentType": 5126,
            "type": "VEC2",
            "count": 1207,
            "bufferView": 11,
            "byteOffset": 0
        },
        {
            "componentType": 5126,
            "type": "VEC2",
            "count": 1207,
            "bufferView": 12,
            "byteOffset": 0
        },
        {
            "componentType": 5123,
            "type": "SCALAR",
            "count": 3075,
            "bufferView": 13,
            "byteOffset": 0
        },
        {
            "componentType": 5126,
            "type": "VEC3",
            "count": 589,
            "bufferView": 14,
            "byteOffset": 0,
            "min": [
                -0.0105010038241744,
                -0.00579922553151846,
                -0.000892098352778703
            ],
            "max": [
                0.0105010038241744,
                0.00579922553151846,
                0.0282039046287537
            ]
        },
        {
            "componentType": 5126,
            "type": "VEC3",
            "count": 589,
            "bufferView": 15,
            "byteOffset": 0
        },
        {
            "componentType": 5126,
            "type": "VEC2",
            "count": 589,
            "bufferView": 16,
            "byteOffset": 0
        },
        {
            "componentType": 5126,
            "type": "VEC2",
            "count": 589,
            "bufferView": 17,
            "byteOffset": 0
        },
        {
            "componentType": 5123,
            "type": "SCALAR",
            "count": 8352,
            "bufferView": 18,
            "byteOffset": 0
        },
        {
            "componentType": 5126,
            "type": "VEC3",
            "count": 1701,
            "bufferView": 19,
            "byteOffset": 0,
            "min": [
                -0.00747845554724336,
                0.0286189522594213,
                0.11684138327837
            ],
            "max": [
                0.0121889663860202,
                0.0372141301631927,
                0.143328607082367
            ]
        },
        {
            "componentType": 5126,
            "type": "VEC3",
            "count": 1701,
            "bufferView": 20,
            "byteOffset": 0
        },
        {
            "componentType": 5126,
            "type": "VEC2",
            "count": 1701,
            "bufferView": 21,
            "byteOffset": 0
        },
        {
            "componentType": 5126,
            "type": "VEC2",
            "count": 1701,
            "bufferView": 22,
            "byteOffset": 0
        }
    ],
    "images": [
        {
            "name": "normal-map.jpg",
            "uri": "normal-map.jpg"
        },
        {
            "name": "Crocodile_texture",
            "uri": "data:image/png;base64,"
        }
    ],
    "samplers": [
        {}
    ],
    "textures": [
        {
            "name": "normal-map",
            "sampler": 0,
            "source": 0
        },
        {
            "name": "Crocodile_texture",
            "sampler": 0,
            "source": 1
        }
    ],
    "materials": [
        {
            "name": "crocodile_texture",
            "alphaMode": "OPAQUE",
            "extras": {
                "fromFBX": {
                    "shadingModel": "Lambert",
                    "isTruePBR": false
                }
            },
            "normalTexture": {
                "index": 0,
                "texCoord": 0
            },
            "pbrMetallicRoughness": {
                "baseColorTexture": {
                    "index": 1,
                    "texCoord": 0
                },
                "baseColorFactor": [
                    0.800000011920929,
                    0.800000011920929,
                    0.800000011920929,
                    1.0
                ],
                "metallicFactor": 0.200000002980232,
                "roughnessFactor": 0.800000011920929
            }
        },
        {
            "name": "crocodile_texture.1",
            "alphaMode": "OPAQUE",
            "extras": {
                "fromFBX": {
                    "shadingModel": "Lambert",
                    "isTruePBR": false
                }
            },
            "normalTexture": {
                "index": 0,
                "texCoord": 0
            },
            "pbrMetallicRoughness": {
                "baseColorTexture": {
                    "index": 1,
                    "texCoord": 0
                },
                "baseColorFactor": [
                    0.800000011920929,
                    0.800000011920929,
                    0.800000011920929,
                    1.0
                ],
                "metallicFactor": 0.200000002980232,
                "roughnessFactor": 0.800000011920929
            }
        },
        {
            "name": "crocodile_texture.2",
            "alphaMode": "OPAQUE",
            "extras": {
                "fromFBX": {
                    "shadingModel": "Lambert",
                    "isTruePBR": false
                }
            },
            "normalTexture": {
                "index": 0,
                "texCoord": 0
            },
            "pbrMetallicRoughness": {
                "baseColorTexture": {
                    "index": 1,
                    "texCoord": 0
                },
                "baseColorFactor": [
                    0.800000011920929,
                    0.800000011920929,
                    0.800000011920929,
                    1.0
                ],
                "metallicFactor": 0.200000002980232,
                "roughnessFactor": 0.800000011920929
            }
        },
        {
            "name": "crocodile_texture.3",
            "alphaMode": "OPAQUE",
            "extras": {
                "fromFBX": {
                    "shadingModel": "Lambert",
                    "isTruePBR": false
                }
            },
            "normalTexture": {
                "index": 0,
                "texCoord": 0
            },
            "pbrMetallicRoughness": {
                "baseColorTexture": {
                    "index": 1,
                    "texCoord": 0
                },
                "baseColorFactor": [
                    0.800000011920929,
                    0.800000011920929,
                    0.800000011920929,
                    1.0
                ],
                "metallicFactor": 0.200000002980232,
                "roughnessFactor": 0.800000011920929
            }
        }
    ],
    "meshes": [
        {
            "name": "body",
            "primitives": [
                {
                    "material": 0,
                    "mode": 4,
                    "attributes": {
                        "NORMAL": 5,
                        "POSITION": 4,
                        "TEXCOORD_0": 6,
                        "TEXCOORD_1": 7
                    },
                    "indices": 3
                }
            ]
        },
        {
            "name": "teeth",
            "primitives": [
                {
                    "material": 1,
                    "mode": 4,
                    "attributes": {
                        "NORMAL": 10,
                        "POSITION": 9,
                        "TEXCOORD_0": 11,
                        "TEXCOORD_1": 12
                    },
                    "indices": 8
                }
            ]
        },
        {
            "name": "body_1",
            "primitives": [
                {
                    "material": 2,
                    "mode": 4,
                    "attributes": {
                        "NORMAL": 15,
                        "POSITION": 14,
                        "TEXCOORD_0": 16,
                        "TEXCOORD_1": 17
                    },
                    "indices": 13
                }
            ]
        },
        {
            "name": "teeth_1",
            "primitives": [
                {
                    "material": 3,
                    "mode": 4,
                    "attributes": {
                        "NORMAL": 20,
                        "POSITION": 19,
                        "TEXCOORD_0": 21,
                        "TEXCOORD_1": 22
                    },
                    "indices": 18
                }
            ]
        }
    ],
    "animations": [
        {
            "name": "CINEMA_4D_Main",
            "channels": [
                {
                    "sampler": 0,
                    "target": {
                        "node": 2,
                        "path": "rotation"
                    }
                },
                {
                    "sampler": 1,
                    "target": {
                        "node": 4,
                        "path": "rotation"
                    }
                }
            ],
            "samplers": [
                {
                    "input": 0,
                    "interpolation": "LINEAR",
                    "output": 1
                },
                {
                    "input": 0,
                    "interpolation": "LINEAR",
                    "output": 2
                }
            ]
        }
    ],
    "nodes": [
        {
            "name": "RootNode",
            "translation": [
                0.0,
                0.0,
                0.0
            ],
            "rotation": [
                0.0,
                0.0,
                0.0,
                1.0
            ],
            "scale": [
                1.0,
                1.0,
                1.0
            ],
            "children": [
                1
            ]
        },
        {
            "name": "Crocodile_model",
            "translation": [
                0.0,
                0.0,
                0.0
            ],
            "rotation": [
                0.0,
                0.0,
                0.0,
                1.0
            ],
            "scale": [
                1.0,
                1.0,
                1.0
            ],
            "children": [
                2,
                4
            ]
        },
        {
            "name": "body",
            "translation": [
                -0.00122842751443386,
                -0.00483101978898048,
                -0.00249197846278548
            ],
            "rotation": [
                0.0532402358949184,
                0.0974668860435486,
                -0.0657349303364754,
                0.991637349128723
            ],
            "scale": [
                1.0,
                1.0,
                1.0
            ],
            "children": [
                3
            ],
            "mesh": 0
        },
        {
            "name": "teeth",
            "translation": [
                0.00180373422335833,
                -0.0203439779579639,
                -0.119901470839977
            ],
            "rotation": [
                6.93889390390723e-18,
                1.38777878078145e-17,
                -3.12250225675825e-17,
                1.0
            ],
            "scale": [
                1.0,
                1.0,
                1.0
            ],
            "mesh": 1
        },
        {
            "name": "body_1",
            "translation": [
                0.00227467692457139,
                0.00719316117465496,
                -0.00599619979038835
            ],
            "rotation": [
                -0.00174079497810453,
                0.0478973686695099,
                -0.0362785495817661,
                0.998191714286804
            ],
            "scale": [
                1.0,
                1.0,
                1.0
            ],
            "children": [
                5
            ],
            "mesh": 2
        },
        {
            "name": "teeth_1",
            "translation": [
                -0.00141689530573785,
                -0.0357037633657455,
                -0.117375873029232
            ],
            "rotation": [
                -8.67361737988404e-19,
                2.77555756156289e-17,
                1.84856470408779e-17,
                1.0
            ],
            "scale": [
                1.0,
                1.0,
                1.0
            ],
            "mesh": 3
        }
    ]
}