{
    "asset": {
        "generator": "FBX2glTF",
        "version": "2.0"
    },
    "scene": 0,
    "buffers": [
        {
            "byteLength": 647792,
            "uri": "football.bin"
        }
    ],
    "bufferViews": [
        {
            "buffer": 0,
            "byteLength": 212,
            "byteOffset": 0
        },
        {
            "buffer": 0,
            "byteLength": 636,
            "byteOffset": 212
        },
        {
            "buffer": 0,
            "byteLength": 112320,
            "byteOffset": 848,
            "target": 34963
        },
        {
            "buffer": 0,
            "byteLength": 151620,
            "byteOffset": 113168,
            "target": 34962
        },
        {
            "buffer": 0,
            "byteLength": 151620,
            "byteOffset": 264788,
            "target": 34962
        },
        {
            "buffer": 0,
            "byteLength": 101080,
            "byteOffset": 416408,
            "target": 34962
        },
        {
            "buffer": 0,
            "byteLength": 25920,
            "byteOffset": 517488,
            "target": 34963
        },
        {
            "buffer": 0,
            "byteLength": 39144,
            "byteOffset": 543408,
            "target": 34962
        },
        {
            "buffer": 0,
            "byteLength": 39144,
            "byteOffset": 582552,
            "target": 34962
        },
        {
            "buffer": 0,
            "byteLength": 26096,
            "byteOffset": 621696,
            "target": 34962
        }
    ],
    "scenes": [
        {
            "name": "Root Scene",
            "nodes": [
                0
            ]
        }
    ],
    "accessors": [
        {
            "componentType": 5126,
            "type": "SCALAR",
            "count": 53,
            "bufferView": 0,
            "byteOffset": 0,
            "min": [
                0.0
            ],
            "max": [
                2.16666674613953
            ]
        },
        {
            "componentType": 5126,
            "type": "VEC3",
            "count": 53,
            "bufferView": 1,
            "byteOffset": 0
        },
        {
            "componentType": 5123,
            "type": "SCALAR",
            "count": 56160,
            "bufferView": 2,
            "byteOffset": 0
        },
        {
            "componentType": 5126,
            "type": "VEC3",
            "count": 12635,
            "bufferView": 3,
            "byteOffset": 0,
            "min": [
                -0.055318258702755,
                0.0,
                -0.0553182512521744
            ],
            "max": [
                0.055318258702755,
                0.110636487603188,
                0.0553182512521744
            ]
        },
        {
            "componentType": 5126,
            "type": "VEC3",
            "count": 12635,
            "bufferView": 4,
            "byteOffset": 0
        },
        {
            "componentType": 5126,
            "type": "VEC2",
            "count": 12635,
            "bufferView": 5,
            "byteOffset": 0
        },
        {
            "componentType": 5123,
            "type": "SCALAR",
            "count": 12960,
            "bufferView": 6,
            "byteOffset": 0
        },
        {
            "componentType": 5126,
            "type": "VEC3",
            "count": 3262,
            "bufferView": 7,
            "byteOffset": 0,
            "min": [
                -0.0538712292909622,
                0.00144701998215169,
                -0.0538712218403816
            ],
            "max": [
                0.0538712292909622,
                0.109189458191395,
                0.0538712218403816
            ]
        },
        {
            "componentType": 5126,
            "type": "VEC3",
            "count": 3262,
            "bufferView": 8,
            "byteOffset": 0
        },
        {
            "componentType": 5126,
            "type": "VEC2",
            "count": 3262,
            "bufferView": 9,
            "byteOffset": 0
        }
    ],
    "images": [
        {
            "name": "soccerball_colorwhite",
            "uri": "data:image/png;base64,"
        },
        {
            "name": "soccerball_colorblack",
            "uri": "data:image/png;base64,"
        }
    ],
    "samplers": [
        {}
    ],
    "textures": [
        {
            "name": "soccerball_colorwhite",
            "sampler": 0,
            "source": 0
        },
        {
            "name": "soccerball_colorblack",
            "sampler": 0,
            "source": 1
        }
    ],
    "materials": [
        {
            "name": "white",
            "alphaMode": "OPAQUE",
            "extras": {
                "fromFBX": {
                    "shadingModel": "Lambert",
                    "isTruePBR": false
                }
            },
            "pbrMetallicRoughness": {
                "baseColorTexture": {
                    "index": 0,
                    "texCoord": 0
                },
                "baseColorFactor": [
                    1.0,
                    1.0,
                    1.0,
                    1.0
                ],
                "metallicFactor": 0.200000002980232,
                "roughnessFactor": 0.800000011920929
            }
        },
        {
            "name": "black",
            "alphaMode": "OPAQUE",
            "extras": {
                "fromFBX": {
                    "shadingModel": "Phong",
                    "isTruePBR": false
                }
            },
            "pbrMetallicRoughness": {
                "baseColorTexture": {
                    "index": 1,
                    "texCoord": 0
                },
                "baseColorFactor": [
                    1.0,
                    1.0,
                    1.0,
                    1.0
                ],
                "metallicFactor": 0.400000005960464,
                "roughnessFactor": 0.70710676908493
            }
        }
    ],
    "meshes": [
        {
            "name": "soccerball_1",
            "primitives": [
                {
                    "material": 0,
                    "mode": 4,
                    "attributes": {
                        "NORMAL": 4,
                        "POSITION": 3,
                        "TEXCOORD_0": 5
                    },
                    "indices": 2
                },
                {
                    "material": 1,
                    "mode": 4,
                    "attributes": {
                        "NORMAL": 8,
                        "POSITION": 7,
                        "TEXCOORD_0": 9
                    },
                    "indices": 6
                }
            ]
        }
    ],
    "animations": [
        {
            "name": "CINEMA_4D_Main",
            "channels": [
                {
                    "sampler": 0,
                    "target": {
                        "node": 1,
                        "path": "translation"
                    }
                }
            ],
            "samplers": [
                {
                    "input": 0,
                    "interpolation": "LINEAR",
                    "output": 1
                }
            ]
        }
    ],
    "nodes": [
        {
            "name": "RootNode",
            "translation": [
                0.0,
                0.0,
                0.0
            ],
            "rotation": [
                0.0,
                0.0,
                0.0,
                1.0
            ],
            "scale": [
                1.0,
                1.0,
                1.0
            ],
            "children": [
                1
            ]
        },
        {
            "name": "soccerball_1",
            "translation": [
                0.0,
                0.0,
                0.0
            ],
            "rotation": [
                0.0,
                0.0,
                0.0,
                1.0
            ],
            "scale": [
                1.0,
                1.0,
                1.0
            ],
            "mesh": 0
        }
    ]
}