{
    "asset": {
        "generator": "FBX2glTF",
        "version": "2.0"
    },
    "scene": 0,
    "buffers": [
        {
            "byteLength": 14609624,
            "uri": "godzillaforunity.bin"
        }
    ],
    "bufferViews": [
        {
            "buffer": 0,
            "byteLength": 196,
            "byteOffset": 0
        },
        {
            "buffer": 0,
            "byteLength": 784,
            "byteOffset": 196
        },
        {
            "buffer": 0,
            "byteLength": 784,
            "byteOffset": 980
        },
        {
            "buffer": 0,
            "byteLength": 784,
            "byteOffset": 1764
        },
        {
            "buffer": 0,
            "byteLength": 195072,
            "byteOffset": 2548,
            "target": 34963
        },
        {
            "buffer": 0,
            "byteLength": 207360,
            "byteOffset": 197620,
            "target": 34962
        },
        {
            "buffer": 0,
            "byteLength": 207360,
            "byteOffset": 404980,
            "target": 34962
        },
        {
            "buffer": 0,
            "byteLength": 138240,
            "byteOffset": 612340,
            "target": 34962
        },
        {
            "buffer": 0,
            "byteLength": 138240,
            "byteOffset": 750580,
            "target": 34962
        },
        {
            "buffer": 0,
            "byteLength": 276480,
            "byteOffset": 888820,
            "target": 34962
        },
        {
            "buffer": 0,
            "byteLength": 3646224,
            "byteOffset": 1165300,
            "target": 34963
        },
        {
            "buffer": 0,
            "byteLength": 1877988,
            "byteOffset": 4811524,
            "target": 34962
        },
        {
            "buffer": 0,
            "byteLength": 1877988,
            "byteOffset": 6689512,
            "target": 34962
        },
        {
            "buffer": 0,
            "byteLength": 1251992,
            "byteOffset": 8567500,
            "target": 34962
        },
        {
            "buffer": 0,
            "byteLength": 1251992,
            "byteOffset": 9819492,
            "target": 34962
        },
        {
            "buffer": 0,
            "byteLength": 2503984,
            "byteOffset": 11071484,
            "target": 34962
        },
        {
            "buffer": 0,
            "byteLength": 5520,
            "byteOffset": 13575468,
            "target": 34963
        },
        {
            "buffer": 0,
            "byteLength": 9348,
            "byteOffset": 13580988,
            "target": 34962
        },
        {
            "buffer": 0,
            "byteLength": 9348,
            "byteOffset": 13590336,
            "target": 34962
        },
        {
            "buffer": 0,
            "byteLength": 6232,
            "byteOffset": 13599684,
            "target": 34962
        },
        {
            "buffer": 0,
            "byteLength": 6232,
            "byteOffset": 13605916,
            "target": 34962
        },
        {
            "buffer": 0,
            "byteLength": 12464,
            "byteOffset": 13612148,
            "target": 34962
        },
        {
            "buffer": 0,
            "byteLength": 145890,
            "byteOffset": 13624612,
            "target": 34963
        },
        {
            "buffer": 0,
            "byteLength": 179688,
            "byteOffset": 13770504,
            "target": 34962
        },
        {
            "buffer": 0,
            "byteLength": 179688,
            "byteOffset": 13950192,
            "target": 34962
        },
        {
            "buffer": 0,
            "byteLength": 119792,
            "byteOffset": 14129880,
            "target": 34962
        },
        {
            "buffer": 0,
            "byteLength": 119792,
            "byteOffset": 14249672,
            "target": 34962
        },
        {
            "buffer": 0,
            "byteLength": 239584,
            "byteOffset": 14369464,
            "target": 34962
        },
        {
            "buffer": 0,
            "byteLength": 576,
            "byteOffset": 14609048
        }
    ],
    "scenes": [
        {
            "name": "Root Scene",
            "nodes": [
                0
            ]
        }
    ],
    "accessors": [
        {
            "componentType": 5126,
            "type": "SCALAR",
            "count": 49,
            "bufferView": 0,
            "byteOffset": 0,
            "min": [
                0.0
            ],
            "max": [
                2.0
            ]
        },
        {
            "componentType": 5126,
            "type": "VEC4",
            "count": 49,
            "bufferView": 1,
            "byteOffset": 0
        },
        {
            "componentType": 5126,
            "type": "VEC4",
            "count": 49,
            "bufferView": 2,
            "byteOffset": 0
        },
        {
            "componentType": 5126,
            "type": "VEC4",
            "count": 49,
            "bufferView": 3,
            "byteOffset": 0
        },
        {
            "componentType": 5123,
            "type": "SCALAR",
            "count": 97536,
            "bufferView": 4,
            "byteOffset": 0
        },
        {
            "componentType": 5126,
            "type": "VEC3",
            "count": 17280,
            "bufferView": 5,
            "byteOffset": 0,
            "min": [
                -0.0540605783462524,
                0.179725334048271,
                0.292674213647842
            ],
            "max": [
                0.0540605783462524,
                0.205663770437241,
                0.318612664937973
            ]
        },
        {
            "componentType": 5126,
            "type": "VEC3",
            "count": 17280,
            "bufferView": 6,
            "byteOffset": 0
        },
        {
            "componentType": 5126,
            "type": "VEC2",
            "count": 17280,
            "bufferView": 7,
            "byteOffset": 0
        },
        {
            "componentType": 5123,
            "type": "VEC4",
            "count": 17280,
            "bufferView": 8,
            "byteOffset": 0
        },
        {
            "componentType": 5126,
            "type": "VEC4",
            "count": 17280,
            "bufferView": 9,
            "byteOffset": 0
        },
        {
            "componentType": 5125,
            "type": "SCALAR",
            "count": 911556,
            "bufferView": 10,
            "byteOffset": 0
        },
        {
            "componentType": 5126,
            "type": "VEC3",
            "count": 156499,
            "bufferView": 11,
            "byteOffset": 0,
            "min": [
                -0.0368382297456264,
                0.0114660011604428,
                0.247162610292435
            ],
            "max": [
                0.0368382297456264,
                0.14927364885807,
                0.38235542178154
            ]
        },
        {
            "componentType": 5126,
            "type": "VEC3",
            "count": 156499,
            "bufferView": 12,
            "byteOffset": 0
        },
        {
            "componentType": 5126,
            "type": "VEC2",
            "count": 156499,
            "bufferView": 13,
            "byteOffset": 0
        },
        {
            "componentType": 5123,
            "type": "VEC4",
            "count": 156499,
            "bufferView": 14,
            "byteOffset": 0
        },
        {
            "componentType": 5126,
            "type": "VEC4",
            "count": 156499,
            "bufferView": 15,
            "byteOffset": 0
        },
        {
            "componentType": 5123,
            "type": "SCALAR",
            "count": 2760,
            "bufferView": 16,
            "byteOffset": 0
        },
        {
            "componentType": 5126,
            "type": "VEC3",
            "count": 779,
            "bufferView": 17,
            "byteOffset": 0,
            "min": [
                -0.0286252070218325,
                0.0348818153142929,
                0.263391196727753
            ],
            "max": [
                0.0284127946943045,
                0.148759573698044,
                0.364758282899857
            ]
        },
        {
            "componentType": 5126,
            "type": "VEC3",
            "count": 779,
            "bufferView": 18,
            "byteOffset": 0
        },
        {
            "componentType": 5126,
            "type": "VEC2",
            "count": 779,
            "bufferView": 19,
            "byteOffset": 0
        },
        {
            "componentType": 5123,
            "type": "VEC4",
            "count": 779,
            "bufferView": 20,
            "byteOffset": 0
        },
        {
            "componentType": 5126,
            "type": "VEC4",
            "count": 779,
            "bufferView": 21,
            "byteOffset": 0
        },
        {
            "componentType": 5123,
            "type": "SCALAR",
            "count": 72945,
            "bufferView": 22,
            "byteOffset": 0
        },
        {
            "componentType": 5126,
            "type": "VEC3",
            "count": 14974,
            "bufferView": 23,
            "byteOffset": 0,
            "min": [
                -0.200144782662392,
                -0.152043521404266,
                -0.0716516897082329
            ],
            "max": [
                0.161041602492332,
                0.286539047956467,
                0.393591105937958
            ]
        },
        {
            "componentType": 5126,
            "type": "VEC3",
            "count": 14974,
            "bufferView": 24,
            "byteOffset": 0
        },
        {
            "componentType": 5126,
            "type": "VEC2",
            "count": 14974,
            "bufferView": 25,
            "byteOffset": 0
        },
        {
            "componentType": 5123,
            "type": "VEC4",
            "count": 14974,
            "bufferView": 26,
            "byteOffset": 0
        },
        {
            "componentType": 5126,
            "type": "VEC4",
            "count": 14974,
            "bufferView": 27,
            "byteOffset": 0
        },
        {
            "componentType": 5126,
            "type": "MAT4",
            "count": 9,
            "bufferView": 28,
            "byteOffset": 0
        }
    ],
    "samplers": [
        {}
    ],
    "materials": [
        {
            "name": "eyes",
            "alphaMode": "OPAQUE",
            "extras": {
                "fromFBX": {
                    "shadingModel": "Lambert",
                    "isTruePBR": false
                }
            },
            "pbrMetallicRoughness": {
                "baseColorFactor": [
                    0.879999995231628,
                    0.684933304786682,
                    0.263999998569489,
                    1.0
                ],
                "metallicFactor": 0.200000002980232,
                "roughnessFactor": 0.800000011920929
            }
        },
        {
            "name": "teeth",
            "alphaMode": "OPAQUE",
            "extras": {
                "fromFBX": {
                    "shadingModel": "Lambert",
                    "isTruePBR": false
                }
            },
            "pbrMetallicRoughness": {
                "baseColorFactor": [
                    0.879999995231628,
                    0.793613314628601,
                    0.607200026512146,
                    1.0
                ],
                "metallicFactor": 0.200000002980232,
                "roughnessFactor": 0.800000011920929
            }
        },
        {
            "name": "mouth",
            "alphaMode": "OPAQUE",
            "extras": {
                "fromFBX": {
                    "shadingModel": "Lambert",
                    "isTruePBR": false
                }
            },
            "pbrMetallicRoughness": {
                "baseColorFactor": [
                    0.560000002384186,
                    0.280000001192093,
                    0.280000001192093,
                    1.0
                ],
                "metallicFactor": 0.200000002980232,
                "roughnessFactor": 0.800000011920929
            }
        },
        {
            "name": "skin",
            "alphaMode": "OPAQUE",
            "extras": {
                "fromFBX": {
                    "shadingModel": "Lambert",
                    "isTruePBR": false
                }
            },
            "pbrMetallicRoughness": {
                "baseColorFactor": [
                    0.191056668758392,
                    0.259999990463257,
                    0.163800001144409,
                    1.0
                ],
                "metallicFactor": 0.200000002980232,
                "roughnessFactor": 0.800000011920929
            }
        }
    ],
    "meshes": [
        {
            "name": "godzilla_OBJ_1",
            "primitives": [
                {
                    "material": 0,
                    "mode": 4,
                    "attributes": {
                        "JOINTS_0": 8,
                        "NORMAL": 6,
                        "POSITION": 5,
                        "TEXCOORD_0": 7,
                        "WEIGHTS_0": 9
                    },
                    "indices": 4
                },
                {
                    "material": 1,
                    "mode": 4,
                    "attributes": {
                        "JOINTS_0": 14,
                        "NORMAL": 12,
                        "POSITION": 11,
                        "TEXCOORD_0": 13,
                        "WEIGHTS_0": 15
                    },
                    "indices": 10
                },
                {
                    "material": 2,
                    "mode": 4,
                    "attributes": {
                        "JOINTS_0": 20,
                        "NORMAL": 18,
                        "POSITION": 17,
                        "TEXCOORD_0": 19,
                        "WEIGHTS_0": 21
                    },
                    "indices": 16
                },
                {
                    "material": 3,
                    "mode": 4,
                    "attributes": {
                        "JOINTS_0": 26,
                        "NORMAL": 24,
                        "POSITION": 23,
                        "TEXCOORD_0": 25,
                        "WEIGHTS_0": 27
                    },
                    "indices": 22
                }
            ]
        }
    ],
    "skins": [
        {
            "joints": [
                2,
                3,
                4,
                5,
                6,
                7,
                8,
                9,
                10
            ],
            "inverseBindMatrices": 28,
            "skeleton": 2
        }
    ],
    "animations": [
        {
            "name": "CINEMA_4D_Main",
            "channels": [
                {
                    "sampler": 0,
                    "target": {
                        "node": 4,
                        "path": "rotation"
                    }
                },
                {
                    "sampler": 1,
                    "target": {
                        "node": 5,
                        "path": "rotation"
                    }
                },
                {
                    "sampler": 2,
                    "target": {
                        "node": 6,
                        "path": "rotation"
                    }
                }
            ],
            "samplers": [
                {
                    "input": 0,
                    "interpolation": "LINEAR",
                    "output": 1
                },
                {
                    "input": 0,
                    "interpolation": "LINEAR",
                    "output": 2
                },
                {
                    "input": 0,
                    "interpolation": "LINEAR",
                    "output": 3
                }
            ]
        }
    ],
    "nodes": [
        {
            "name": "RootNode",
            "translation": [
                0.0,
                0.0,
                0.0
            ],
            "rotation": [
                0.0,
                0.0,
                0.0,
                1.0
            ],
            "scale": [
                1.0,
                1.0,
                1.0
            ],
            "children": [
                1
            ]
        },
        {
            "name": "godzilla_OBJ_1",
            "translation": [
                0.0,
                0.0,
                0.0
            ],
            "rotation": [
                0.0,
                0.0,
                0.0,
                1.0
            ],
            "scale": [
                1.0,
                1.0,
                1.0
            ],
            "children": [
                2
            ],
            "mesh": 0,
            "skin": 0
        },
        {
            "name": "Root",
            "translation": [
                -0.00213713617995381,
                -0.00112916983198375,
                -0.00934748165309429
            ],
            "rotation": [
                0.0,
                0.0,
                0.0,
                1.0
            ],
            "scale": [
                1.0,
                1.0,
                1.0
            ],
            "children": [
                3
            ]
        },
        {
            "name": "Joint_2",
            "translation": [
                0.0,
                0.0,
                0.0
            ],
            "rotation": [
                -0.083965890109539,
                0.888709902763367,
                -0.415453851222992,
                -0.17476424574852
            ],
            "scale": [
                1.0,
                1.0,
                1.0
            ],
            "children": [
                4
            ]
        },
        {
            "name": "Joint_3",
            "translation": [
                0.0309441182762384,
                0.0107072573155165,
                -0.149242728948593
            ],
            "rotation": [
                -0.251530587673187,
                -0.0645451173186302,
                -0.0141869094222784,
                0.965590476989746
            ],
            "scale": [
                1.0,
                1.0,
                1.0
            ],
            "children": [
                5
            ]
        },
        {
            "name": "Joint_4",
            "translation": [
                0.0213589183986187,
                0.0156310703605413,
                -0.102768316864967
            ],
            "rotation": [
                -0.393774956464767,
                -0.140772745013237,
                -0.0702875480055809,
                0.905640065670013
            ],
            "scale": [
                1.0,
                1.0,
                1.0
            ],
            "children": [
                6
            ]
        },
        {
            "name": "Joint_5",
            "translation": [
                4.88498128188091e-17,
                7.10542719878232e-17,
                -0.0631184503436089
            ],
            "rotation": [
                -0.380505114793777,
                -0.0265616737306118,
                -0.0109342224895954,
                0.924332618713379
            ],
            "scale": [
                1.0,
                1.0,
                1.0
            ],
            "children": [
                7,
                9
            ]
        },
        {
            "name": "Joint_6",
            "translation": [
                0.0148388314992189,
                0.00253187073394656,
                -0.0650128796696663
            ],
            "rotation": [
                0.176989197731018,
                0.0412050485610962,
                -0.00159920274745673,
                0.983348548412323
            ],
            "scale": [
                1.0,
                1.0,
                1.0
            ],
            "children": [
                8
            ]
        },
        {
            "name": "Joint_7",
            "translation": [
                0.0193250812590122,
                0.0026578544639051,
                -0.0655592605471611
            ],
            "rotation": [
                0.0192332174628973,
                -0.142809942364693,
                0.00277567445300519,
                0.989559352397919
            ],
            "scale": [
                1.0,
                1.0,
                1.0
            ]
        },
        {
            "name": "Joint_6_2",
            "translation": [
                -0.00147997075691819,
                0.0678590834140778,
                0.0229149051010609
            ],
            "rotation": [
                0.398490458726883,
                0.194066405296326,
                -0.271342486143112,
                0.854351699352264
            ],
            "scale": [
                1.0,
                1.0,
                1.0
            ],
            "children": [
                10
            ]
        },
        {
            "name": "Joint_7_2",
            "translation": [
                0.00853530131280422,
                0.0101238498464227,
                -0.0959111228585243
            ],
            "rotation": [
                0.052301574498415,
                -0.0443035811185837,
                0.00232261582277715,
                0.997645378112793
            ],
            "scale": [
                1.0,
                1.0,
                1.0
            ]
        }
    ]
}