{
    "asset": {
        "generator": "FBX2glTF",
        "version": "2.0"
    },
    "scene": 0,
    "buffers": [
        {
            "byteLength": 5219008,
            "uri": "Saxophone-new.bin"
        }
    ],
    "bufferViews": [
        {
            "buffer": 0,
            "byteLength": 196,
            "byteOffset": 0
        },
        {
            "buffer": 0,
            "byteLength": 784,
            "byteOffset": 196
        },
        {
            "buffer": 0,
            "byteLength": 588,
            "byteOffset": 980
        },
        {
            "buffer": 0,
            "byteLength": 588,
            "byteOffset": 1568
        },
        {
            "buffer": 0,
            "byteLength": 637488,
            "byteOffset": 2156,
            "target": 34963
        },
        {
            "buffer": 0,
            "byteLength": 1253556,
            "byteOffset": 639644,
            "target": 34962
        },
        {
            "buffer": 0,
            "byteLength": 1253556,
            "byteOffset": 1893200,
            "target": 34962
        },
        {
            "buffer": 0,
            "byteLength": 835704,
            "byteOffset": 3146756,
            "target": 34962
        },
        {
            "buffer": 0,
            "byteLength": 89946,
            "byteOffset": 3982460,
            "target": 34963
        },
        {
            "buffer": 0,
            "byteLength": 297708,
            "byteOffset": 4072408,
            "target": 34962
        },
        {
            "buffer": 0,
            "byteLength": 297708,
            "byteOffset": 4370116,
            "target": 34962
        },
        {
            "buffer": 0,
            "byteLength": 198472,
            "byteOffset": 4667824,
            "target": 34962
        },
        {
            "buffer": 0,
            "byteLength": 17412,
            "byteOffset": 4866296,
            "target": 34963
        },
        {
            "buffer": 0,
            "byteLength": 48600,
            "byteOffset": 4883708,
            "target": 34962
        },
        {
            "buffer": 0,
            "byteLength": 48600,
            "byteOffset": 4932308,
            "target": 34962
        },
        {
            "buffer": 0,
            "byteLength": 32400,
            "byteOffset": 4980908,
            "target": 34962
        },
        {
            "buffer": 0,
            "byteLength": 9672,
            "byteOffset": 5013308,
            "target": 34963
        },
        {
            "buffer": 0,
            "byteLength": 34440,
            "byteOffset": 5022980,
            "target": 34962
        },
        {
            "buffer": 0,
            "byteLength": 34440,
            "byteOffset": 5057420,
            "target": 34962
        },
        {
            "buffer": 0,
            "byteLength": 22960,
            "byteOffset": 5091860,
            "target": 34962
        },
        {
            "buffer": 0,
            "byteLength": 2676,
            "byteOffset": 5114820,
            "target": 34963
        },
        {
            "buffer": 0,
            "byteLength": 6072,
            "byteOffset": 5117496,
            "target": 34962
        },
        {
            "buffer": 0,
            "byteLength": 6072,
            "byteOffset": 5123568,
            "target": 34962
        },
        {
            "buffer": 0,
            "byteLength": 4048,
            "byteOffset": 5129640,
            "target": 34962
        },
        {
            "buffer": 0,
            "byteLength": 7752,
            "byteOffset": 5133688,
            "target": 34963
        },
        {
            "buffer": 0,
            "byteLength": 26928,
            "byteOffset": 5141440,
            "target": 34962
        },
        {
            "buffer": 0,
            "byteLength": 26928,
            "byteOffset": 5168368,
            "target": 34962
        },
        {
            "buffer": 0,
            "byteLength": 17952,
            "byteOffset": 5195296,
            "target": 34962
        },
        {
            "buffer": 0,
            "byteLength": 1152,
            "byteOffset": 5213248,
            "target": 34963
        },
        {
            "buffer": 0,
            "byteLength": 1728,
            "byteOffset": 5214400,
            "target": 34962
        },
        {
            "buffer": 0,
            "byteLength": 1728,
            "byteOffset": 5216128,
            "target": 34962
        },
        {
            "buffer": 0,
            "byteLength": 1152,
            "byteOffset": 5217856,
            "target": 34962
        }
    ],
    "scenes": [
        {
            "name": "Root Scene",
            "nodes": [
                0
            ]
        }
    ],
    "accessors": [
        {
            "componentType": 5126,
            "type": "SCALAR",
            "count": 49,
            "bufferView": 0,
            "byteOffset": 0,
            "min": [
                0.0
            ],
            "max": [
                2.0
            ]
        },
        {
            "componentType": 5126,
            "type": "VEC4",
            "count": 49,
            "bufferView": 1,
            "byteOffset": 0
        },
        {
            "componentType": 5126,
            "type": "VEC3",
            "count": 49,
            "bufferView": 2,
            "byteOffset": 0
        },
        {
            "componentType": 5126,
            "type": "VEC3",
            "count": 49,
            "bufferView": 3,
            "byteOffset": 0
        },
        {
            "componentType": 5125,
            "type": "SCALAR",
            "count": 159372,
            "bufferView": 4,
            "byteOffset": 0
        },
        {
            "componentType": 5126,
            "type": "VEC3",
            "count": 104463,
            "bufferView": 5,
            "byteOffset": 0,
            "min": [
                -0.13232833147049,
                -0.00811417773365974,
                -0.0857417434453964
            ],
            "max": [
                0.222063556313515,
                0.787304580211639,
                0.0857417434453964
            ]
        },
        {
            "componentType": 5126,
            "type": "VEC3",
            "count": 104463,
            "bufferView": 6,
            "byteOffset": 0
        },
        {
            "componentType": 5126,
            "type": "VEC2",
            "count": 104463,
            "bufferView": 7,
            "byteOffset": 0
        },
        {
            "componentType": 5123,
            "type": "SCALAR",
            "count": 44973,
            "bufferView": 8,
            "byteOffset": 0
        },
        {
            "componentType": 5126,
            "type": "VEC3",
            "count": 24809,
            "bufferView": 9,
            "byteOffset": 0,
            "min": [
                -0.050990417599678,
                0.00555062061175704,
                -0.0271701887249947
            ],
            "max": [
                0.125878527760506,
                0.61944591999054,
                0.059365913271904
            ]
        },
        {
            "componentType": 5126,
            "type": "VEC3",
            "count": 24809,
            "bufferView": 10,
            "byteOffset": 0
        },
        {
            "componentType": 5126,
            "type": "VEC2",
            "count": 24809,
            "bufferView": 11,
            "byteOffset": 0
        },
        {
            "componentType": 5123,
            "type": "SCALAR",
            "count": 8706,
            "bufferView": 12,
            "byteOffset": 0
        },
        {
            "componentType": 5126,
            "type": "VEC3",
            "count": 4050,
            "bufferView": 13,
            "byteOffset": 0,
            "min": [
                -0.0366565994918346,
                0.00882826838642359,
                -0.0253433659672737
            ],
            "max": [
                0.12314411252737,
                0.61944591999054,
                0.0382395535707474
            ]
        },
        {
            "componentType": 5126,
            "type": "VEC3",
            "count": 4050,
            "bufferView": 14,
            "byteOffset": 0
        },
        {
            "componentType": 5126,
            "type": "VEC2",
            "count": 4050,
            "bufferView": 15,
            "byteOffset": 0
        },
        {
            "componentType": 5123,
            "type": "SCALAR",
            "count": 4836,
            "bufferView": 16,
            "byteOffset": 0
        },
        {
            "componentType": 5126,
            "type": "VEC3",
            "count": 2870,
            "bufferView": 17,
            "byteOffset": 0,
            "min": [
                -0.228957325220108,
                0.0119199650362134,
                -0.0212820433080196
            ],
            "max": [
                0.119881168007851,
                0.820650637149811,
                0.055286381393671
            ]
        },
        {
            "componentType": 5126,
            "type": "VEC3",
            "count": 2870,
            "bufferView": 18,
            "byteOffset": 0
        },
        {
            "componentType": 5126,
            "type": "VEC2",
            "count": 2870,
            "bufferView": 19,
            "byteOffset": 0
        },
        {
            "componentType": 5123,
            "type": "SCALAR",
            "count": 1338,
            "bufferView": 20,
            "byteOffset": 0
        },
        {
            "componentType": 5126,
            "type": "VEC3",
            "count": 506,
            "bufferView": 21,
            "byteOffset": 0,
            "min": [
                -0.229587823152542,
                0.126360461115837,
                -0.0186401288956404
            ],
            "max": [
                0.0349199920892715,
                0.817819356918335,
                0.043916005641222
            ]
        },
        {
            "componentType": 5126,
            "type": "VEC3",
            "count": 506,
            "bufferView": 22,
            "byteOffset": 0
        },
        {
            "componentType": 5126,
            "type": "VEC2",
            "count": 506,
            "bufferView": 23,
            "byteOffset": 0
        },
        {
            "componentType": 5123,
            "type": "SCALAR",
            "count": 3876,
            "bufferView": 24,
            "byteOffset": 0
        },
        {
            "componentType": 5126,
            "type": "VEC3",
            "count": 2244,
            "bufferView": 25,
            "byteOffset": 0,
            "min": [
                -0.193421602249146,
                0.771923720836639,
                -0.015189397148788
            ],
            "max": [
                -0.150695487856865,
                0.818483591079712,
                0.023254819214344
            ]
        },
        {
            "componentType": 5126,
            "type": "VEC3",
            "count": 2244,
            "bufferView": 26,
            "byteOffset": 0
        },
        {
            "componentType": 5126,
            "type": "VEC2",
            "count": 2244,
            "bufferView": 27,
            "byteOffset": 0
        },
        {
            "componentType": 5123,
            "type": "SCALAR",
            "count": 576,
            "bufferView": 28,
            "byteOffset": 0
        },
        {
            "componentType": 5126,
            "type": "VEC3",
            "count": 144,
            "bufferView": 29,
            "byteOffset": 0,
            "min": [
                -0.0299999993294477,
                -0.0299999993294477,
                -0.0299999993294477
            ],
            "max": [
                0.0299999993294477,
                0.0299999993294477,
                0.0299999993294477
            ]
        },
        {
            "componentType": 5126,
            "type": "VEC3",
            "count": 144,
            "bufferView": 30,
            "byteOffset": 0
        },
        {
            "componentType": 5126,
            "type": "VEC2",
            "count": 144,
            "bufferView": 31,
            "byteOffset": 0
        }
    ],
    "samplers": [
        {}
    ],
    "materials": [
        {
            "name": "Sax_Body_001",
            "alphaMode": "OPAQUE",
            "extras": {
                "fromFBX": {
                    "shadingModel": "Phong",
                    "isTruePBR": false
                }
            },
            "pbrMetallicRoughness": {
                "baseColorFactor": [
                    0.720000028610229,
                    0.54720002412796,
                    0.288000047206879,
                    1.0
                ],
                "metallicFactor": 0.400000005960464,
                "roughnessFactor": 0.77620804309845
            }
        },
        {
            "name": "Sax_Body_001.1",
            "alphaMode": "OPAQUE",
            "extras": {
                "fromFBX": {
                    "shadingModel": "Phong",
                    "isTruePBR": false
                }
            },
            "pbrMetallicRoughness": {
                "baseColorFactor": [
                    0.720000028610229,
                    0.54720002412796,
                    0.288000047206879,
                    1.0
                ],
                "metallicFactor": 0.400000005960464,
                "roughnessFactor": 0.77620804309845
            }
        },
        {
            "name": "FrontColor",
            "alphaMode": "OPAQUE",
            "extras": {
                "fromFBX": {
                    "shadingModel": "Lambert",
                    "isTruePBR": false
                }
            },
            "pbrMetallicRoughness": {
                "baseColorFactor": [
                    1.0,
                    1.0,
                    1.0,
                    1.0
                ],
                "metallicFactor": 0.200000002980232,
                "roughnessFactor": 0.800000011920929
            }
        },
        {
            "name": "Black_Semi_Gloss_001",
            "alphaMode": "OPAQUE",
            "extras": {
                "fromFBX": {
                    "shadingModel": "Phong",
                    "isTruePBR": false
                }
            },
            "pbrMetallicRoughness": {
                "baseColorFactor": [
                    0.0862745121121407,
                    0.0862745121121407,
                    0.0862745121121407,
                    1.0
                ],
                "metallicFactor": 0.400000005960464,
                "roughnessFactor": 0.301511347293854
            }
        },
        {
            "name": "Keys_001",
            "alphaMode": "OPAQUE",
            "extras": {
                "fromFBX": {
                    "shadingModel": "Lambert",
                    "isTruePBR": false
                }
            },
            "pbrMetallicRoughness": {
                "baseColorFactor": [
                    0.886274516582489,
                    0.886274516582489,
                    0.886274516582489,
                    1.0
                ],
                "metallicFactor": 0.200000002980232,
                "roughnessFactor": 0.800000011920929
            }
        },
        {
            "name": "Chrome_001",
            "alphaMode": "OPAQUE",
            "extras": {
                "fromFBX": {
                    "shadingModel": "Phong",
                    "isTruePBR": false
                }
            },
            "pbrMetallicRoughness": {
                "baseColorFactor": [
                    0.615686297416687,
                    0.635294139385223,
                    0.639215707778931,
                    1.0
                ],
                "metallicFactor": 0.400000005960464,
                "roughnessFactor": 0.301511347293854
            }
        },
        {
            "name": "Keys_001.1",
            "alphaMode": "OPAQUE",
            "extras": {
                "fromFBX": {
                    "shadingModel": "Lambert",
                    "isTruePBR": false
                }
            },
            "pbrMetallicRoughness": {
                "baseColorFactor": [
                    0.340000003576279,
                    0.725000023841858,
                    1.0,
                    1.0
                ],
                "metallicFactor": 0.200000002980232,
                "roughnessFactor": 0.800000011920929
            }
        }
    ],
    "meshes": [
        {
            "name": "sax_alto_1",
            "primitives": [
                {
                    "material": 0,
                    "mode": 4,
                    "attributes": {
                        "NORMAL": 6,
                        "POSITION": 5,
                        "TEXCOORD_0": 7
                    },
                    "indices": 4
                },
                {
                    "material": 1,
                    "mode": 4,
                    "attributes": {
                        "NORMAL": 10,
                        "POSITION": 9,
                        "TEXCOORD_0": 11
                    },
                    "indices": 8
                },
                {
                    "material": 2,
                    "mode": 4,
                    "attributes": {
                        "NORMAL": 14,
                        "POSITION": 13,
                        "TEXCOORD_0": 15
                    },
                    "indices": 12
                },
                {
                    "material": 3,
                    "mode": 4,
                    "attributes": {
                        "NORMAL": 18,
                        "POSITION": 17,
                        "TEXCOORD_0": 19
                    },
                    "indices": 16
                },
                {
                    "material": 4,
                    "mode": 4,
                    "attributes": {
                        "NORMAL": 22,
                        "POSITION": 21,
                        "TEXCOORD_0": 23
                    },
                    "indices": 20
                },
                {
                    "material": 5,
                    "mode": 4,
                    "attributes": {
                        "NORMAL": 26,
                        "POSITION": 25,
                        "TEXCOORD_0": 27
                    },
                    "indices": 24
                }
            ]
        },
        {
            "name": "Sphere",
            "primitives": [
                {
                    "material": 6,
                    "mode": 4,
                    "attributes": {
                        "NORMAL": 30,
                        "POSITION": 29,
                        "TEXCOORD_0": 31
                    },
                    "indices": 28
                }
            ]
        }
    ],
    "animations": [
        {
            "name": "CINEMA_4D_Main",
            "channels": [
                {
                    "sampler": 0,
                    "target": {
                        "node": 1,
                        "path": "rotation"
                    }
                },
                {
                    "sampler": 1,
                    "target": {
                        "node": 2,
                        "path": "translation"
                    }
                },
                {
                    "sampler": 2,
                    "target": {
                        "node": 2,
                        "path": "scale"
                    }
                }
            ],
            "samplers": [
                {
                    "input": 0,
                    "interpolation": "LINEAR",
                    "output": 1
                },
                {
                    "input": 0,
                    "interpolation": "LINEAR",
                    "output": 2
                },
                {
                    "input": 0,
                    "interpolation": "LINEAR",
                    "output": 3
                }
            ]
        }
    ],
    "nodes": [
        {
            "name": "RootNode",
            "translation": [
                0.0,
                0.0,
                0.0
            ],
            "rotation": [
                0.0,
                0.0,
                0.0,
                1.0
            ],
            "scale": [
                1.0,
                1.0,
                1.0
            ],
            "children": [
                1
            ]
        },
        {
            "name": "sax_alto_1",
            "translation": [
                0.0,
                0.0,
                0.0
            ],
            "rotation": [
                0.0,
                0.0,
                0.0,
                1.0
            ],
            "scale": [
                1.0,
                1.0,
                1.0
            ],
            "children": [
                2
            ],
            "mesh": 0
        },
        {
            "name": "Sphere",
            "translation": [
                0.120705761015415,
                0.305718094110489,
                0.0
            ],
            "rotation": [
                0.0,
                0.0,
                0.0,
                1.0
            ],
            "scale": [
                1.0,
                1.0,
                1.0
            ],
            "mesh": 1
        }
    ]
}